<svg width="197" height="50" viewBox="0 0 197 50" fill="none" xmlns="http://www.w3.org/2000/svg">
<circle cx="9.61262" cy="8.58179" r="8.58179" fill="#67DEDC"/>
<circle cx="37.4013" cy="8.58179" r="8.58179" fill="#FBE055"/>
<circle cx="65.1899" cy="8.58179" r="8.58179" fill="#F867C2"/>
<circle cx="92.9786" cy="8.58179" r="8.58179" fill="#CE69E3"/>
<path d="M17.9216 28.7065V41.613C17.9216 44.4275 17.1802 46.529 15.6974 47.9174C14.2145 49.3058 11.9808 50 8.99624 50C5.96443 50 3.70711 49.3058 2.22427 47.9174C0.741422 46.529 0 44.4275 0 41.613V28.7065H4.40603V40.9188C4.40603 42.6283 4.78383 43.9175 5.53941 44.7864C6.295 45.6459 7.42367 46.0757 8.9254 46.0757C10.4366 46.0757 11.5794 45.6412 12.3539 44.7723C13.1284 43.9033 13.5156 42.6188 13.5156 40.9188V28.7065H17.9216Z" fill="white"/>
<path d="M33.2614 49.4475V28.7065H37.8658L47.0462 40.7771C47.3107 41.1171 47.5987 41.5988 47.9104 42.2221C48.2315 42.8361 48.5621 43.5633 48.9021 44.4039C48.7982 43.79 48.7227 43.1808 48.6754 42.5763C48.6282 41.9719 48.6046 41.2163 48.6046 40.3096V28.7065H52.8406V49.4475H48.4913L39.0559 37.1503C38.7914 36.8102 38.5033 36.3333 38.1916 35.7194C37.88 35.096 37.5494 34.3546 37.1999 33.4951C37.3038 34.0901 37.3794 34.6946 37.4266 35.3085C37.4738 35.913 37.4974 36.678 37.4974 37.6036V49.4475H33.2614Z" fill="white"/>
<path d="M68.2796 49.4475V28.7065H72.714V49.4475H68.2796Z" fill="white"/>
<path d="M88.1954 49.4475V28.7065H100.408V32.4467H92.6298V36.7111H100.408V40.4796H92.6298V49.4475H88.1954Z" fill="white"/>
<path d="M124.8 41.5563L122.477 34.8552C122.411 34.6568 122.326 34.3168 122.222 33.8351C122.118 33.3534 122.009 32.7631 121.896 32.0642C121.773 32.7348 121.655 33.3393 121.542 33.8776C121.429 34.4065 121.344 34.7607 121.287 34.9402L119.048 41.5563H124.8ZM111.596 49.4475L119.488 28.7065H124.559L132.564 49.4475H127.52L125.835 45.0414H117.802L116.357 49.4475H111.596Z" fill="white"/>
<path d="M160.484 49.4475H155.37L149.916 39.757V49.4475H145.481V28.7065H151.828C154.35 28.7065 156.239 29.1977 157.495 30.1799C158.751 31.1528 159.379 32.6214 159.379 34.586C159.379 36.0121 158.95 37.2305 158.09 38.2411C157.231 39.2517 156.121 39.842 154.761 40.012L160.484 49.4475ZM149.916 37.5469H150.581C152.376 37.5469 153.561 37.3533 154.137 36.9661C154.714 36.5694 155.002 35.8846 155.002 34.9118C155.002 33.8918 154.69 33.1692 154.067 32.7442C153.453 32.3098 152.291 32.0925 150.581 32.0925H149.916V37.5469Z" fill="white"/>
<path d="M172.013 49.4475L175.172 28.7065H179.819L183.814 40.9188C183.9 41.1738 183.989 41.5468 184.084 42.038C184.188 42.5291 184.282 43.0911 184.367 43.7239C184.443 43.0816 184.528 42.5102 184.622 42.0096C184.716 41.4996 184.806 41.1265 184.891 40.8904L188.957 28.7065H193.533L196.707 49.4475H192.499L190.983 36.9377C190.87 36.0121 190.794 35.3132 190.756 34.841C190.719 34.3687 190.7 33.9296 190.7 33.5234C190.7 33.3062 190.7 33.1456 190.7 33.0417C190.709 32.9284 190.719 32.8292 190.728 32.7442C190.586 33.5565 190.45 34.2601 190.317 34.8552C190.195 35.4407 190.081 35.8846 189.977 36.1869L185.585 49.4475H183.092L178.771 36.1869C178.733 36.0641 178.648 35.7241 178.516 35.1668C178.393 34.6096 178.218 33.7973 177.992 32.7301V33.3393C177.992 34.3026 177.907 35.4832 177.737 36.8811L177.723 36.9377L176.221 49.4475H172.013Z" fill="white"/>
</svg>
